# xmcd CD database file
# Copyright (C) 2001 Ti Kan
# 
# Track frame offsets:
#     150
#     19382
#     34489
#     58282
#     85751
#     114599
#     132142
#     152602
#     174710
# 
# Disc length: 2654 seconds
# 
# Revision: 2
# Processed by: cddbd v1.4PL0 Copyright (c) Steve Scherf et al.
# Submitted via: DiscPlay 4.0.4
# 
DISCID=780a5c09
DTITLE=Freddie Roulette - Spirit Of Steel
DYEAR=1900
DGENRE=
TTITLE0=River's Invitation
TTITLE1=Cherry Pink And Appleblossom White
TTITLE2=Honeysuckle Rose
TTITLE3=Everybody Wants To Go To Heaven
TTITLE4=Dis Tang
TTITLE5=Lucille
TTITLE6=You Don't Love Me, Yes I Know
TTITLE7=You're Going To Need Me
TTITLE8=Song For My Father
EXTD=
EXTT0=
EXTT1=
EXTT2=
EXTT3=
EXTT4=
EXTT5=
EXTT6=
EXTT7=
EXTT8=
PLAYORDER=
